<svg xmlns="http://www.w3.org/2000/svg" viewBox="0 0 256 256" width="256" height="256">
  <defs>
    <linearGradient id="night" x1="0" y1="0" x2="0" y2="1">
      <stop offset="0" stop-color="#1A0A2E"/>
      <stop offset="1" stop-color="#0B0712"/>
    </linearGradient>
    <linearGradient id="sunset" x1="0" y1="0" x2="1" y2="1">
      <stop offset="0" stop-color="#FF6E4A"/>
      <stop offset="1" stop-color="#FFB454"/>
    </linearGradient>
    <linearGradient id="metal" x1="0" y1="0" x2="0" y2="1">
      <stop offset="0" stop-color="#F5D194"/>
      <stop offset="1" stop-color="#FF8A5C"/>
    </linearGradient>
    <clipPath id="round">
      <rect width="256" height="256" rx="56"/>
    </clipPath>
    <filter id="shadow" x="-20%" y="-20%" width="140%" height="140%">
      <feDropShadow dx="0" dy="8" stdDeviation="8" flood-color="#05030A" flood-opacity="0.55"/>
    </filter>
  </defs>
  <g clip-path="url(#round)">
    <rect width="256" height="256" fill="url(#night)"/>
    <circle cx="128" cy="168" r="88" fill="url(#sunset)"/>
    <path d="M44 162H212" stroke="#FFE9B0" stroke-width="7" stroke-linecap="round" opacity="0.95"/>
    <path d="M72 190H184" stroke="#FF8A5C" stroke-width="4" stroke-linecap="round" opacity="0.55"/>
    <g filter="url(#shadow)">
      <g transform="translate(88 112) rotate(-18)">
        <rect x="-44" y="-18" width="88" height="36" rx="18" fill="none" stroke="#0B0712" stroke-width="26"/>
        <rect x="-44" y="-18" width="88" height="36" rx="18" fill="none" stroke="url(#metal)" stroke-width="12"/>
      </g>
      <g transform="translate(168 112) rotate(18)">
        <rect x="-44" y="-18" width="88" height="36" rx="18" fill="none" stroke="#0B0712" stroke-width="26"/>
        <rect x="-44" y="-18" width="88" height="36" rx="18" fill="none" stroke="url(#metal)" stroke-width="12"/>
      </g>
    </g>
  </g>
  <rect x="2" y="2" width="252" height="252" rx="54" fill="none" stroke="#FFB454" stroke-width="4" opacity="0.9"/>
</svg>
